HIERARCHY
ROOT joint_0
{
	OFFSET 0.000000 0.000000 0.000000
	CHANNELS 6 Xposition Yposition Zposition Zrotation Yrotation Xrotation 
	JOINT joint_1
	{
		OFFSET 14.113007 -2.961990 123.953979
		CHANNELS 3 Zrotation Yrotation Xrotation
		JOINT joint_2
		{
			OFFSET 0.764000 -2.434006 113.871948
			CHANNELS 3 Zrotation Yrotation Xrotation
			JOINT joint_3
			{
				OFFSET 0.186996 -2.169998 113.753052
				CHANNELS 3 Zrotation Yrotation Xrotation
				JOINT joint_4
				{
					OFFSET 16.096001 -2.720001 160.853027
					CHANNELS 3 Zrotation Yrotation Xrotation
					JOINT joint_5
					{
						OFFSET 34.392006 -0.188995 92.567017
						CHANNELS 3 Zrotation Yrotation Xrotation
						End Site
						{
							OFFSET 0.000000 0.000000 0.000000
						}
					}
				}
				JOINT joint_6
				{
					OFFSET 9.183998 -36.684006 89.597046
					CHANNELS 3 Zrotation Yrotation Xrotation
					JOINT joint_7
					{
						OFFSET 0.486000 -164.365997 -28.984009
						CHANNELS 3 Zrotation Yrotation Xrotation
						JOINT joint_8
						{
							OFFSET 38.899002 -34.967010 -291.651978
							CHANNELS 3 Zrotation Yrotation Xrotation
							JOINT joint_9
							{
								OFFSET 41.714005 -45.890991 -258.857056
								CHANNELS 3 Zrotation Yrotation Xrotation
								End Site
								{
									OFFSET 0.000000 0.000000 0.000000
								}
							}
						}
					}
				}
				JOINT joint_10
				{
					OFFSET 8.867004 33.650002 90.817993
					CHANNELS 3 Zrotation Yrotation Xrotation
					JOINT joint_11
					{
						OFFSET 0.018997 164.299999 -29.368042
						CHANNELS 3 Zrotation Yrotation Xrotation
						JOINT joint_12
						{
							OFFSET 29.440994 30.887997 -293.216919
							CHANNELS 3 Zrotation Yrotation Xrotation
							JOINT joint_13
							{
								OFFSET 46.174011 54.490005 -256.422058
								CHANNELS 3 Zrotation Yrotation Xrotation
								End Site
								{
									OFFSET 0.000000 0.000000 0.000000
								}
							}
						}
					}
				}
			}
		}
	}
	JOINT joint_14
	{
		OFFSET -2.264000 -89.466995 -116.150024
		CHANNELS 3 Zrotation Yrotation Xrotation
		JOINT joint_15
		{
			OFFSET -16.400993 -17.452988 -493.781982
			CHANNELS 3 Zrotation Yrotation Xrotation
			JOINT joint_16
			{
				OFFSET -50.497004 -13.404022 -424.754013
				CHANNELS 3 Zrotation Yrotation Xrotation
				JOINT joint_17
				{
					OFFSET 198.546007 -19.341003 -89.309000
					CHANNELS 3 Zrotation Yrotation Xrotation
					End Site
					{
						OFFSET 0.000000 0.000000 0.000000
					}
				}
			}
		}
	}
	JOINT joint_18
	{
		OFFSET -0.867996 96.016006 -110.817993
		CHANNELS 3 Zrotation Yrotation Xrotation
		JOINT joint_19
		{
			OFFSET -10.130997 24.658998 -493.645020
			CHANNELS 3 Zrotation Yrotation Xrotation
			JOINT joint_20
			{
				OFFSET -48.871004 19.434999 -424.714005
				CHANNELS 3 Zrotation Yrotation Xrotation
				JOINT joint_21
				{
					OFFSET 195.579996 24.926001 -94.327003
					CHANNELS 3 Zrotation Yrotation Xrotation
					End Site
					{
						OFFSET 0.000000 0.000000 0.000000
					}
				}
			}
		}
	}
}
MOTION
Frames: 6
Frame Time: 0.016667
369.876010 -100.527000 1098.911990 -10.981391 1.030324 -3.486023 1.155429 5.942579 1.924812 1.475246 -0.848291 -0.423103 1.535851 1.124487 0.367402 -0.937675 3.456878 2.615492 0.000000 0.000000 0.000000 1.359184 -1.138153 0.674968 0.111649 -0.921409 -0.593228 0.154202 -1.875788 -1.225151 0.000000 0.000000 0.000000 -1.738185 0.997966 -0.050013 0.704717 1.442700 2.976887 0.445531 1.171813 0.987479 0.000000 0.000000 0.000000 4.806381 -4.564370 -0.380530 2.975841 34.341150 3.144181 3.432714 -14.366397 -0.110247 0.000000 0.000000 0.000000 -2.060295 -27.902335 4.901332 -3.385034 29.568239 -7.272771 -10.382771 -2.153786 -4.121375 0.000000 0.000000 0.000000 
377.424010 -98.471000 1092.750000 -11.479018 0.572040 -3.372490 1.037938 6.314421 1.127646 1.455350 -0.914943 -0.330670 1.520922 1.134797 0.264291 -0.942293 3.157365 2.628675 0.000000 0.000000 0.000000 1.141468 -1.029027 1.137339 0.130392 -0.854566 -0.745716 0.353205 -2.231919 -0.424060 0.000000 0.000000 0.000000 -2.346225 0.931555 -0.486921 1.044718 1.551646 3.504384 0.954630 2.527483 1.961658 0.000000 0.000000 0.000000 5.271410 -4.831947 -0.549943 3.260320 36.887612 3.061461 3.574278 -15.161303 -0.192591 0.000000 0.000000 0.000000 -1.211690 -29.324015 4.927814 -2.743521 34.172015 -7.384034 -11.277364 -3.442368 -4.263406 0.000000 0.000000 0.000000 
386.591000 -95.538000 1088.266970 -12.133975 0.255380 -3.497874 1.088042 6.446285 0.910928 1.486778 -1.024176 -0.244982 1.561479 1.230227 0.198144 -0.843165 3.043460 2.360413 0.000000 0.000000 0.000000 1.193978 -0.617909 0.898101 0.189508 -0.438644 -0.404595 0.557271 -2.714285 0.238519 0.000000 0.000000 0.000000 -2.650091 0.942824 -1.102976 1.299623 1.669495 3.735347 1.362348 3.169558 3.182720 0.000000 0.000000 0.000000 5.605445 -5.042340 -0.606131 3.504958 38.885657 3.079113 3.653957 -15.361115 -0.237596 0.000000 0.000000 0.000000 -0.700487 -29.470996 4.930211 -2.108485 36.333476 -7.303714 -11.340098 -4.666194 -4.103601 0.000000 0.000000 0.000000 
396.211000 -92.341000 1085.020020 -12.818049 0.020690 -3.728492 1.208974 6.452581 0.974677 1.543495 -1.144055 -0.158242 1.627561 1.370813 0.147245 -0.696429 2.976666 1.962276 0.000000 0.000000 0.000000 1.370959 -0.062962 0.344662 0.274004 0.143186 0.122101 0.779457 -3.286260 0.884300 0.000000 0.000000 0.000000 -2.804187 0.962266 -1.781708 1.493485 1.760261 3.823127 1.691043 3.331629 4.523640 0.000000 0.000000 0.000000 5.864131 -5.222342 -0.600700 3.717640 40.517400 3.131823 3.671851 -15.165290 -0.264542 0.000000 0.000000 0.000000 -0.323828 -29.150987 4.907953 -1.477106 37.651413 -7.152236 -11.092846 -6.018494 -3.815919 0.000000 0.000000 0.000000 
404.668000 -89.859000 1082.724000 -13.345305 -0.211840 -3.839206 1.289789 6.432872 0.860202 1.571427 -1.215822 -0.069667 1.659475 1.454331 0.087549 -0.582132 2.947183 1.656018 0.000000 0.000000 0.000000 1.503958 0.390986 -0.003746 0.344055 0.618192 0.559596 0.941609 -3.609795 1.447550 0.000000 0.000000 0.000000 -2.877879 0.935927 -2.187346 1.630646 1.778090 3.851646 1.933620 3.407726 5.522061 0.000000 0.000000 0.000000 6.048143 -5.258846 -0.663536 3.877870 41.759624 3.160488 3.636760 -14.835202 -0.293459 0.000000 0.000000 0.000000 -0.015080 -28.818843 4.778424 -0.950703 38.741279 -6.997635 -10.881753 -7.091386 -3.581741 0.000000 0.000000 0.000000 
411.118010 -88.742000 1081.329960 -13.568587 -0.476114 -3.685673 1.267251 6.402494 0.277104 1.531627 -1.183487 0.032008 1.615412 1.415729 0.000853 -0.540015 2.977756 1.550969 0.000000 0.000000 0.000000 1.528418 0.645258 0.079323 0.374432 0.876191 0.857031 0.993047 -3.452119 1.920062 0.000000 0.000000 0.000000 -2.891655 0.833022 -2.078929 1.700981 1.687913 3.767937 2.091908 3.577557 6.033394 0.000000 0.000000 0.000000 6.115538 -5.090431 -0.878963 3.932018 42.605382 3.138570 3.506929 -14.486315 -0.348542 0.000000 0.000000 0.000000 0.233428 -28.678488 4.441263 -0.583064 39.891003 -6.841570 -10.855393 -7.730245 -3.476193 0.000000 0.000000 0.000000 
